<?xml version="1.0" encoding="utf-8"?>
<!-- Generator: Adobe Illustrator 23.0.1, SVG Export Plug-In . SVG Version: 6.00 Build 0)  -->
<svg version="1.1" id="Layer_1" xmlns="http://www.w3.org/2000/svg" xmlns:xlink="http://www.w3.org/1999/xlink" x="0px" y="0px"
	 viewBox="0 0 1366 768" style="enable-background:new 0 0 1366 768;" xml:space="preserve">
<g>
	<path d="M67.2,371.4v53.1H39.7V283.5h52.7c6.9,0,13.2,1.1,18.9,3.3c5.7,2.2,10.6,5.2,14.7,9.2c4.1,3.9,7.3,8.6,9.5,13.9
		s3.3,11.2,3.3,17.6c0,6.4-1.1,12.3-3.3,17.7c-2.2,5.4-5.3,10.1-9.5,13.9c-4.1,3.8-9,6.9-14.7,9.1c-5.7,2.2-12,3.3-18.9,3.3H67.2z
		 M89.1,347.8c6.9,0,12.3-1.8,16.2-5.5c3.9-3.6,5.9-8.5,5.9-14.6c0-6.4-2-11.3-5.9-14.9c-3.9-3.6-9.3-5.4-16.2-5.4H67.4v40.4H89.1z"
		/>
	<path d="M217.6,370.3h-14.3v54.3h-27.7V283.5h55.1c6.9,0,13.1,1.1,18.6,3.4c5.5,2.3,10.2,5.3,14.1,9.2c3.9,3.8,6.9,8.4,9.1,13.7
		c2.1,5.3,3.2,11,3.2,17.1c0,10-2.7,18.4-8.1,25.5c-5.4,7-12.7,11.9-22,14.5l30.2,57.7h-30.6L217.6,370.3z M225.6,346.6
		c7,0,12.5-1.8,16.3-5.4c3.8-3.6,5.8-8.3,5.8-14.1c0-6-1.9-10.7-5.8-14.3c-3.8-3.6-9.3-5.4-16.3-5.4h-22.3v39.2H225.6z"/>
	<path d="M306.6,354.1c0-11.4,2-21.7,6-30.7c4-9.1,9.3-16.8,15.9-23.2c6.6-6.4,14.3-11.2,23.1-14.6c8.8-3.4,17.9-5.1,27.5-5.1
		c9.6,0,18.7,1.7,27.6,5.1c8.8,3.4,16.5,8.3,23.2,14.6c6.6,6.4,11.9,14.1,15.9,23.2c4,9.1,6,19.3,6,30.7c0,11.4-2,21.6-6,30.6
		c-4,9-9.3,16.7-15.9,23.1c-6.6,6.4-14.4,11.2-23.2,14.6c-8.8,3.4-18,5.1-27.6,5.1c-9.6,0-18.7-1.7-27.5-5.1
		c-8.8-3.4-16.5-8.3-23.1-14.6c-6.6-6.4-11.9-14.1-15.9-23.1C308.6,375.8,306.6,365.5,306.6,354.1z M335,353.9
		c0,8,1.3,14.9,3.8,20.8c2.5,5.9,5.9,10.8,10,14.6c4.2,3.8,8.9,6.7,14.1,8.7c5.2,1.9,10.6,2.9,16,2.9c5.4,0,10.8-1,16.1-2.9
		c5.3-1.9,10-4.8,14.2-8.7c4.2-3.8,7.5-8.7,10-14.6c2.5-5.9,3.8-12.8,3.8-20.8s-1.3-14.9-3.8-20.8c-2.5-5.9-5.9-10.8-10-14.6
		c-4.2-3.8-8.9-6.7-14.2-8.7c-5.3-1.9-10.7-2.9-16.1-2.9c-5.4,0-10.8,1-16,2.9c-5.2,1.9-10,4.8-14.1,8.7c-4.2,3.8-7.5,8.7-10,14.6
		C336.3,339,335,346,335,353.9z"/>
	<path d="M547,309.6v115h-27.7v-115h-44.6v-26.1h116.8v26.1H547z"/>
	<path d="M614.6,354.1c0-11.4,2-21.7,6-30.7c4-9.1,9.3-16.8,15.9-23.2c6.6-6.4,14.3-11.2,23.1-14.6s17.9-5.1,27.5-5.1
		c9.6,0,18.7,1.7,27.6,5.1c8.8,3.4,16.5,8.3,23.2,14.6c6.6,6.4,11.9,14.1,15.9,23.2c4,9.1,6,19.3,6,30.7c0,11.4-2,21.6-6,30.6
		c-4,9-9.3,16.7-15.9,23.1c-6.6,6.4-14.4,11.2-23.2,14.6c-8.8,3.4-18,5.1-27.6,5.1c-9.6,0-18.7-1.7-27.5-5.1s-16.5-8.3-23.1-14.6
		c-6.6-6.4-11.9-14.1-15.9-23.1C616.6,375.8,614.6,365.5,614.6,354.1z M643.1,353.9c0,8,1.3,14.9,3.8,20.8
		c2.5,5.9,5.9,10.8,10.1,14.6c4.2,3.8,8.9,6.7,14.1,8.7c5.2,1.9,10.6,2.9,16,2.9c5.4,0,10.8-1,16.1-2.9c5.3-1.9,10-4.8,14.2-8.7
		c4.2-3.8,7.5-8.7,10-14.6c2.5-5.9,3.8-12.8,3.8-20.8s-1.3-14.9-3.8-20.8c-2.5-5.9-5.9-10.8-10-14.6c-4.2-3.8-8.9-6.7-14.2-8.7
		c-5.3-1.9-10.7-2.9-16.1-2.9c-5.4,0-10.8,1-16,2.9c-5.2,1.9-10,4.8-14.1,8.7c-4.2,3.8-7.5,8.7-10.1,14.6
		C644.3,339,643.1,346,643.1,353.9z"/>
	<path d="M855,309.6v115h-27.7v-115h-44.6v-26.1h116.8v26.1H855z"/>
	<path d="M924.6,283.5h32.2l31.6,55.9l31.6-55.9h30.8l-49.8,81.8v59.3h-27.5v-59.3L924.6,283.5z"/>
	<path d="M1112.5,371.4v53.1H1085V283.5h52.7c6.9,0,13.2,1.1,18.9,3.3c5.7,2.2,10.6,5.2,14.7,9.2c4.1,3.9,7.3,8.6,9.5,13.9
		s3.3,11.2,3.3,17.6c0,6.4-1.1,12.3-3.3,17.7c-2.2,5.4-5.3,10.1-9.5,13.9c-4.1,3.8-9,6.9-14.7,9.1c-5.7,2.2-12,3.3-18.9,3.3H1112.5z
		 M1134.4,347.8c6.9,0,12.3-1.8,16.2-5.5c3.9-3.6,5.9-8.5,5.9-14.6c0-6.4-2-11.3-5.9-14.9c-3.9-3.6-9.3-5.4-16.2-5.4h-21.7v40.4
		H1134.4z"/>
	<path d="M1221,424.6V283.5h88.4v25.9h-60.9v32.2h55.1v24.5h-55.1v32.6h60.9v25.9H1221z"/>
</g>
</svg>
